<svg width="21" height="20" viewBox="0 0 21 20" fill="none" xmlns="http://www.w3.org/2000/svg">
<path d="M9.37654 0.85958C9.67639 -0.0606967 10.9783 -0.0606959 11.2782 0.859581L13.0292 6.23398C13.1634 6.64561 13.5471 6.92418 13.98 6.92418H19.6408C20.6102 6.92418 21.0125 8.16521 20.2275 8.73398L15.6526 12.0486C15.3012 12.3033 15.1541 12.7555 15.2886 13.1682L17.0371 18.5349C17.3372 19.4557 16.2839 20.2227 15.4996 19.6544L10.9141 16.3321C10.564 16.0784 10.0907 16.0784 9.74063 16.3321L5.15508 19.6544C4.37082 20.2227 3.31753 19.4557 3.61756 18.5348L5.36613 13.1682C5.50058 12.7555 5.3535 12.3033 5.00204 12.0486L0.427169 8.73398C-0.357838 8.16521 0.044493 6.92418 1.01389 6.92418H6.67464C7.10757 6.92418 7.49133 6.64561 7.62545 6.23398L9.37654 0.85958Z" fill="#070707"/>
</svg>
